<?xml version="1.0" standalone="no"?>
<!DOCTYPE svg PUBLIC "-//W3C//DTD SVG 20010904//EN"
 "http://www.w3.org/TR/2001/REC-SVG-20010904/DTD/svg10.dtd">
<svg version="1.0" xmlns="http://www.w3.org/2000/svg"
 width="906.000000pt" height="906.000000pt" viewBox="0 0 906.000000 906.000000"
 preserveAspectRatio="xMidYMid meet">
<metadata>
Created by potrace 1.14, written by Peter Selinger 2001-2017
</metadata>
<g transform="translate(0.000000,906.000000) scale(0.100000,-0.100000)"
fill="#000000" stroke="none">
<path d="M0 4530 l0 -4530 4530 0 4530 0 0 4530 0 4530 -4530 0 -4530 0 0
-4530z m6440 2785 c9 -33 24 -74 33 -92 9 -18 17 -40 17 -51 0 -10 11 -40 24
-68 13 -27 36 -87 51 -134 15 -47 30 -89 34 -95 12 -16 69 -187 76 -228 9 -56
49 -91 157 -137 128 -56 181 -82 247 -121 34 -22 66 -39 70 -39 5 0 16 -9 26
-20 10 -11 23 -20 30 -20 7 0 20 -9 30 -20 10 -11 23 -20 30 -20 7 0 20 -9 30
-20 10 -11 22 -20 27 -20 32 0 208 -177 208 -209 0 -6 26 -39 58 -73 32 -35
67 -79 78 -98 10 -19 29 -49 40 -67 27 -40 53 -152 69 -293 12 -106 7 -167
-16 -181 -7 -4 -14 -31 -17 -61 -3 -41 0 -57 12 -67 9 -7 16 -19 16 -26 0 -7
19 -36 42 -65 35 -43 42 -61 46 -107 5 -54 -19 -133 -40 -133 -4 0 -15 -18
-24 -40 -17 -41 -102 -127 -164 -164 -19 -12 -61 -29 -95 -38 -33 -9 -94 -29
-135 -43 -106 -38 -199 -43 -325 -15 -55 12 -153 26 -218 31 -121 10 -120 10
-267 -32 -58 -17 -74 -16 -78 6 -7 37 -23 46 -66 40 -28 -5 -55 -1 -84 10 -44
18 -56 17 -182 -8 -91 -19 -138 -36 -228 -82 -38 -19 -72 -35 -76 -35 -4 0
-17 -12 -30 -26 -22 -26 -26 -27 -169 -32 -95 -3 -162 -1 -193 7 -35 9 -91 9
-228 1 -183 -10 -285 -29 -343 -61 -26 -15 -55 -17 -190 -16 -159 1 -210 -6
-283 -41 -25 -11 -54 -15 -100 -12 -176 10 -214 7 -261 -25 -24 -17 -48 -35
-54 -42 -5 -7 -48 -19 -95 -28 -106 -19 -150 -29 -175 -42 -30 -15 -253 -6
-304 12 -24 8 -68 15 -98 15 -62 0 -175 24 -217 47 -52 28 -341 57 -355 35 -4
-7 -72 -13 -173 -16 -145 -5 -175 -9 -243 -32 -72 -25 -81 -26 -132 -14 -66
14 -122 8 -218 -26 -96 -34 -162 -80 -221 -154 -27 -35 -65 -81 -85 -104 -37
-43 -112 -140 -141 -183 -30 -46 -60 -191 -62 -298 -2 -75 -7 -109 -21 -135
-36 -69 -33 -164 16 -435 20 -112 24 -127 79 -275 59 -161 90 -255 90 -277 0
-27 38 -132 55 -153 7 -8 18 -31 24 -51 18 -56 79 -114 157 -151 80 -37 147
-89 170 -132 8 -17 22 -42 30 -56 17 -31 18 -89 1 -96 -14 -5 -84 56 -111 98
-21 32 -77 54 -103 39 -10 -5 -32 -39 -48 -75 -28 -61 -32 -66 -61 -66 -29 0
-32 4 -39 36 -3 20 -3 59 0 88 7 52 7 53 -28 75 -34 21 -80 27 -112 15 -22 -9
-71 -83 -79 -120 -4 -18 -15 -39 -25 -48 -17 -16 -20 -15 -47 7 -46 38 -87 41
-125 10 -49 -41 -63 -25 -67 76 l-3 83 56 55 c37 35 67 78 88 121 27 60 31 77
31 162 1 58 -6 121 -16 160 -9 36 -21 109 -27 163 -11 94 -18 119 -71 247 -12
30 -35 89 -50 130 -14 41 -33 89 -42 105 -8 17 -19 48 -22 70 -4 22 -16 60
-27 84 -23 53 -24 128 -3 196 18 61 22 231 6 247 -32 32 6 109 83 168 25 19
74 63 108 98 34 34 65 62 69 62 8 0 24 12 81 66 20 19 41 34 46 34 5 0 12 8
16 19 3 10 18 32 33 49 15 16 41 46 57 66 17 20 42 49 57 64 30 31 48 71 48
110 0 15 9 41 20 57 23 35 25 63 6 90 -7 11 -17 31 -21 45 -4 13 -21 37 -36
53 -16 16 -29 34 -29 42 0 7 -7 18 -15 25 -18 15 -65 116 -65 139 1 9 14 40
30 70 26 48 27 56 14 66 -14 10 -14 23 -4 108 7 54 16 100 21 103 21 12 6 45
-35 79 -36 29 -45 44 -48 73 -2 30 -7 38 -26 40 -12 2 -34 15 -48 29 -35 35
-30 110 11 156 16 18 30 45 32 60 1 16 8 37 13 48 10 17 7 19 -30 19 -44 0
-52 18 -25 54 8 11 15 34 15 51 0 22 9 38 34 60 l34 30 -19 26 c-23 32 -24 76
-4 115 8 16 15 25 15 20 0 -5 6 -3 14 3 8 7 18 37 22 68 6 49 10 56 37 68 16
7 25 15 19 19 -14 8 17 64 40 71 9 3 19 17 22 31 4 13 17 29 31 34 13 5 31 21
41 35 9 14 22 25 29 25 7 0 15 9 18 20 7 29 34 35 57 15 13 -11 20 -14 20 -6
0 7 5 9 11 5 6 -3 15 -1 19 7 5 7 30 15 57 18 39 5 48 10 48 26 0 17 -8 20
-57 23 -32 2 -58 7 -58 12 0 4 8 6 18 3 12 -3 28 10 52 43 37 49 63 64 110 64
20 0 49 17 95 55 54 44 75 55 104 55 52 0 72 16 32 25 -17 3 -31 11 -31 16 0
16 32 23 51 11 10 -7 38 -12 62 -12 43 0 68 16 79 49 5 18 107 55 196 71 40 7
68 16 62 20 -7 4 -3 10 12 13 35 10 86 8 93 -3 3 -5 -3 -10 -14 -10 -10 0 -31
-13 -44 -30 -22 -25 -33 -30 -71 -30 -25 0 -48 -5 -51 -10 -4 -6 -23 -17 -43
-26 -20 -8 -47 -24 -59 -36 -13 -13 -28 -18 -39 -14 -22 9 -54 -2 -54 -18 0
-8 -7 -20 -16 -27 -14 -12 -14 -14 3 -20 31 -13 38 -10 79 26 28 25 48 35 73
35 50 0 111 21 122 42 5 10 16 18 24 18 8 0 15 7 15 15 0 11 10 13 49 8 42 -5
51 -2 69 17 25 29 38 41 86 85 22 19 40 36 40 36 1 1 57 5 126 9 74 5 155 16
200 29 85 24 280 40 280 24 0 -6 9 -13 20 -16 32 -8 23 -32 -22 -63 -39 -27
-48 -29 -142 -30 -137 -1 -156 -2 -156 -14 0 -6 55 -10 145 -10 145 0 146 0
213 -34 92 -46 119 -51 132 -27 14 26 -5 67 -48 105 -28 24 -33 35 -30 65 3
36 4 36 48 36 25 0 70 -5 100 -12 85 -19 116 -16 259 27 156 47 198 50 210 18
12 -33 38 -51 101 -72 30 -11 62 -24 70 -31 8 -7 31 -15 50 -17 19 -3 43 -8
52 -12 28 -13 11 59 -23 95 -36 39 -37 59 -3 59 32 0 122 -37 150 -62 11 -10
25 -18 31 -18 6 0 22 -9 35 -20 20 -17 54 -43 123 -95 71 -54 135 -107 135
-113 0 -16 108 -71 176 -91 82 -24 119 -26 154 -8 46 24 68 25 137 5 101 -30
128 -32 184 -14 47 16 55 16 90 2 67 -27 115 -17 132 26 5 15 26 29 138 88 41
22 97 77 104 103 4 12 14 38 23 57 23 52 33 138 20 183 -9 28 -8 54 2 108 11
58 19 74 44 95 48 38 66 29 86 -41z m-2860 -3393 c0 -4 -14 -15 -30 -24 -17
-10 -30 -25 -30 -37 0 -31 -11 -51 -27 -51 -12 0 -14 7 -9 33 6 32 49 77 74
77 7 0 10 5 6 12 -4 7 -3 8 4 4 7 -4 12 -10 12 -14z m-131 -195 c-2 -18 0 -37
3 -42 3 -6 11 -37 17 -69 10 -55 33 -96 53 -96 9 0 15 -5 108 -88 95 -84 278
-224 335 -257 28 -16 52 -32 55 -35 3 -4 28 -22 55 -41 28 -19 76 -53 107 -77
31 -23 61 -42 66 -42 5 0 19 -11 32 -25 13 -14 28 -25 33 -25 6 0 19 -9 31
-21 49 -48 223 -165 328 -221 35 -18 78 -43 97 -55 19 -13 97 -55 175 -94 78
-39 148 -74 156 -79 14 -9 143 -69 262 -124 31 -14 60 -26 64 -26 4 0 26 -9
48 -19 23 -11 59 -26 81 -34 128 -47 250 -98 264 -111 10 -9 22 -16 27 -16 5
0 45 -33 89 -74 103 -96 97 -106 -55 -92 -93 8 -146 21 -157 39 -16 24 -134
82 -187 92 -19 4 -42 16 -52 26 -9 10 -24 19 -32 19 -10 0 -13 8 -10 30 4 25
1 30 -15 30 -18 0 -19 -5 -12 -66 4 -36 17 -87 30 -112 13 -26 26 -59 30 -74
6 -24 3 -28 -21 -34 -16 -4 -34 -2 -43 5 -29 20 -55 30 -105 36 -55 7 -96 40
-96 77 0 30 -70 123 -134 180 -27 23 -72 64 -100 89 -45 41 -278 209 -290 209
-2 0 -40 22 -83 48 -43 27 -112 67 -154 90 -42 23 -82 49 -89 57 -7 8 -18 15
-26 15 -7 0 -21 8 -31 19 -10 10 -31 23 -48 28 -16 6 -61 32 -100 57 -38 25
-75 46 -82 46 -7 0 -13 4 -13 9 0 5 -16 15 -35 21 -19 6 -38 17 -42 24 -5 7
-23 18 -40 25 -18 8 -33 17 -33 22 0 5 -5 9 -11 9 -6 0 -34 16 -63 35 -29 19
-58 35 -64 35 -6 0 -16 9 -22 20 -6 11 -17 20 -24 20 -7 0 -26 13 -42 29 -15
16 -33 27 -39 25 -6 -3 -10 11 -10 33 0 33 -5 40 -40 60 -26 15 -57 23 -87 23
-40 0 -50 4 -65 27 -40 60 -112 123 -139 123 -22 0 -75 40 -80 60 0 3 -5 14
-9 24 -6 13 -5 21 3 24 7 2 12 10 12 18 0 17 42 28 77 20 30 -8 43 5 43 47 0
28 45 81 61 72 4 -3 11 0 15 6 6 10 8 20 13 67 0 6 4 12 7 12 3 0 4 -15 3 -33z"/>
<path d="M3880 6815 c0 -26 -66 -43 -225 -60 -27 -3 -55 -12 -61 -20 -6 -8
-16 -15 -23 -15 -6 0 -11 -4 -11 -10 0 -15 54 -12 76 5 22 17 219 22 229 6 5
-9 64 -23 148 -36 33 -5 37 -9 37 -35 0 -33 9 -60 19 -60 10 0 31 47 31 70 0
23 -45 62 -113 95 -29 15 -60 34 -69 42 -10 9 -18 12 -18 7 0 -5 -5 -2 -10 6
-5 8 -10 10 -10 5z"/>
<path d="M2445 6678 c-42 -6 -65 -16 -77 -31 -9 -12 -14 -25 -12 -29 7 -11 60
-10 82 0 9 5 30 15 47 23 27 13 49 51 28 48 -4 -1 -35 -6 -68 -11z"/>
<path d="M2717 6641 c-32 -15 -62 -32 -65 -37 -4 -5 -37 -22 -74 -38 -50 -21
-86 -47 -147 -105 -78 -75 -87 -91 -51 -91 29 0 204 100 237 135 18 19 38 35
45 35 7 0 29 9 49 19 20 11 54 24 77 30 44 12 72 34 72 57 0 8 -6 14 -14 14
-7 0 -26 2 -42 5 -19 2 -50 -6 -87 -24z"/>
<path d="M2905 6663 c-11 -3 -24 -9 -30 -14 -12 -12 87 0 100 12 9 9 -34 10
-70 2z"/>
<path d="M3913 6562 c-50 -19 -59 -38 -42 -89 18 -53 23 -56 63 -49 29 6 36
12 36 29 0 13 7 33 16 45 26 38 26 62 -2 72 -14 6 -26 10 -27 9 -1 0 -21 -8
-44 -17z"/>
<path d="M2835 6403 c-38 -25 -39 -26 -16 -34 23 -9 71 14 61 29 -3 4 7 8 23
10 15 2 27 8 27 13 0 18 -56 7 -95 -18z"/>
<path d="M2325 6359 c-10 -15 3 -25 16 -12 7 7 7 13 1 17 -6 3 -14 1 -17 -5z"/>
<path d="M2745 6340 c3 -5 12 -10 20 -10 8 0 17 5 20 10 4 6 -5 10 -20 10 -15
0 -24 -4 -20 -10z"/>
<path d="M1863 6323 c-27 -4 -33 -9 -33 -28 0 -35 16 -39 56 -15 28 18 32 25
23 36 -6 8 -12 13 -13 12 0 0 -16 -3 -33 -5z"/>
<path d="M1770 6216 c0 -17 5 -26 16 -26 10 0 14 7 12 22 -5 32 -28 35 -28 4z"/>
<path d="M5698 5855 c-55 -15 -87 -37 -149 -102 -71 -73 -86 -142 -49 -218 11
-22 19 -47 20 -56 0 -8 15 -35 33 -58 84 -111 281 -141 452 -68 73 31 123 68
207 157 24 24 58 59 77 77 l34 32 -24 21 c-13 11 -40 29 -61 40 -20 11 -38 23
-40 27 -3 9 -24 24 -106 78 -114 76 -272 104 -394 70z m352 -201 c0 -9 -5 -14
-12 -12 -18 6 -21 28 -4 28 9 0 16 -7 16 -16z"/>
<path d="M7508 4844 c-16 -8 -28 -23 -28 -33 0 -38 87 -84 109 -57 5 6 12 23
16 38 6 23 2 30 -27 48 -39 23 -36 23 -70 4z"/>
</g>
</svg>
